<svg width="240" height="81" viewBox="0 0 240 81" fill="none" xmlns="http://www.w3.org/2000/svg">
<g filter="url(#filter0_d_1_288)">
<rect x="11" y="11" width="208" height="49" rx="10" fill="url(#paint0_linear_1_288)" shape-rendering="crispEdges"/>
</g>
<path d="M61.56 49C59.7867 49 58.41 48.5333 57.43 47.6C56.45 46.6667 55.96 45.36 55.96 43.68V29.68C55.96 28.0467 56.4267 26.775 57.36 25.865C58.3167 24.955 59.635 24.5 61.315 24.5H72.2C72.9 24.5 73.4367 24.6633 73.81 24.99C74.1833 25.2933 74.37 25.7367 74.37 26.32C74.37 26.88 74.1717 27.3233 73.775 27.65C73.4017 27.9533 72.8767 28.105 72.2 28.105H62.12C61.6533 28.105 61.28 28.2567 61 28.56C60.7433 28.8633 60.615 29.2833 60.615 29.82V34.685H69.54C70.24 34.685 70.7767 34.8483 71.15 35.175C71.5233 35.4783 71.71 35.9217 71.71 36.505C71.71 37.065 71.5117 37.5083 71.115 37.835C70.7417 38.1383 70.2167 38.29 69.54 38.29H60.615V43.68C60.615 44.2167 60.7433 44.6367 61 44.94C61.28 45.2433 61.6533 45.395 62.12 45.395H72.97C73.67 45.395 74.2067 45.5583 74.58 45.885C74.9533 46.1883 75.14 46.6317 75.14 47.215C75.14 47.775 74.9417 48.2183 74.545 48.545C74.1717 48.8483 73.6467 49 72.97 49H61.56ZM88.3487 49C86.5753 49 85.1987 48.5333 84.2187 47.6C83.2387 46.6667 82.7487 45.36 82.7487 43.68V26.25C82.7487 25.5967 82.9587 25.0833 83.3787 24.71C83.7987 24.3367 84.3587 24.15 85.0587 24.15C85.7587 24.15 86.3187 24.3483 86.7387 24.745C87.182 25.1183 87.4037 25.62 87.4037 26.25V43.68C87.4037 44.2167 87.532 44.6367 87.7887 44.94C88.0687 45.2433 88.442 45.395 88.9087 45.395H100.109C100.809 45.395 101.345 45.5583 101.719 45.885C102.092 46.1883 102.279 46.6317 102.279 47.215C102.279 47.775 102.08 48.2183 101.684 48.545C101.31 48.8483 100.785 49 100.109 49H88.3487ZM112.521 49.35C111.821 49.35 111.261 49.1633 110.841 48.79C110.421 48.4167 110.211 47.9033 110.211 47.25V26.25C110.211 25.5967 110.421 25.0833 110.841 24.71C111.261 24.3367 111.821 24.15 112.521 24.15C113.198 24.15 113.758 24.3367 114.201 24.71C114.645 25.0833 114.866 25.5967 114.866 26.25V47.25C114.866 47.9033 114.645 48.4167 114.201 48.79C113.758 49.1633 113.198 49.35 112.521 49.35ZM125.985 49.35C125.285 49.35 124.725 49.1633 124.305 48.79C123.885 48.4167 123.675 47.9033 123.675 47.25V34.055C123.675 30.9517 124.644 28.525 126.58 26.775C128.517 25.025 131.2 24.15 134.63 24.15C138.06 24.15 140.744 25.025 142.68 26.775C144.617 28.525 145.585 30.9517 145.585 34.055V47.25C145.585 47.9033 145.375 48.4167 144.955 48.79C144.535 49.1633 143.975 49.35 143.275 49.35C142.575 49.35 142.004 49.1633 141.56 48.79C141.14 48.3933 140.93 47.88 140.93 47.25V33.95C140.93 31.9667 140.394 30.45 139.32 29.4C138.247 28.35 136.684 27.825 134.63 27.825C132.577 27.825 131.014 28.35 129.94 29.4C128.867 30.45 128.33 31.9667 128.33 33.95V47.25C128.33 47.88 128.109 48.3933 127.665 48.79C127.245 49.1633 126.685 49.35 125.985 49.35ZM158.939 49C157.166 49 155.789 48.5333 154.809 47.6C153.829 46.6667 153.339 45.36 153.339 43.68V29.68C153.339 28.0467 153.806 26.775 154.739 25.865C155.696 24.955 157.014 24.5 158.694 24.5H169.579C170.279 24.5 170.816 24.6633 171.189 24.99C171.563 25.2933 171.749 25.7367 171.749 26.32C171.749 26.88 171.551 27.3233 171.154 27.65C170.781 27.9533 170.256 28.105 169.579 28.105H159.499C159.033 28.105 158.659 28.2567 158.379 28.56C158.123 28.8633 157.994 29.2833 157.994 29.82V34.685H166.919C167.619 34.685 168.156 34.8483 168.529 35.175C168.903 35.4783 169.089 35.9217 169.089 36.505C169.089 37.065 168.891 37.5083 168.494 37.835C168.121 38.1383 167.596 38.29 166.919 38.29H157.994V43.68C157.994 44.2167 158.123 44.6367 158.379 44.94C158.659 45.2433 159.033 45.395 159.499 45.395H170.349C171.049 45.395 171.586 45.5583 171.959 45.885C172.333 46.1883 172.519 46.6317 172.519 47.215C172.519 47.775 172.321 48.2183 171.924 48.545C171.551 48.8483 171.026 49 170.349 49H158.939Z" fill="#F1D7C7"/>
<ellipse cx="124.279" cy="49.7683" rx="4.5" ry="2.8258" transform="rotate(-34.1909 124.279 49.7683)" fill="#F1D7C7"/>
<ellipse cx="141.368" cy="49.8033" rx="4.5" ry="3" transform="rotate(-26.6909 141.368 49.8033)" fill="#F1D7C7"/>
<defs>
<filter id="filter0_d_1_288" x="0" y="0" width="240" height="81" filterUnits="userSpaceOnUse" color-interpolation-filters="sRGB">
<feFlood flood-opacity="0" result="BackgroundImageFix"/>
<feColorMatrix in="SourceAlpha" type="matrix" values="0 0 0 0 0 0 0 0 0 0 0 0 0 0 0 0 0 0 127 0" result="hardAlpha"/>
<feOffset dx="5" dy="5"/>
<feGaussianBlur stdDeviation="8"/>
<feComposite in2="hardAlpha" operator="out"/>
<feColorMatrix type="matrix" values="0 0 0 0 0 0 0 0 0 0 0 0 0 0 0 0 0 0 0.25 0"/>
<feBlend mode="normal" in2="BackgroundImageFix" result="effect1_dropShadow_1_288"/>
<feBlend mode="normal" in="SourceGraphic" in2="effect1_dropShadow_1_288" result="shape"/>
</filter>
<linearGradient id="paint0_linear_1_288" x1="11" y1="11" x2="82" y2="60" gradientUnits="userSpaceOnUse">
<stop offset="0.03125" stop-color="#1D249A" stop-opacity="0"/>
<stop offset="0.90625" stop-color="#674AA0"/>
</linearGradient>
</defs>
</svg>
