<svg width="34" height="21" viewBox="0 0 34 21" fill="none" xmlns="http://www.w3.org/2000/svg">
<path d="M21.2771 1.6073L25.842 2.47162L23.7223 6.55067" stroke="white" stroke-width="2" stroke-linecap="round" stroke-linejoin="round"/>
<path d="M23.6465 14.108L24.8251 18.5869L20.1339 18.4621" stroke="white" stroke-width="2" stroke-linecap="round" stroke-linejoin="round"/>
<path d="M25.101 3.38784C25.101 2.82031 24.6393 2.35379 24.0759 2.42236C22.3251 2.63545 20.6776 3.39045 19.378 4.59197C17.8272 6.02577 16.888 7.9879 16.7513 10.0798C16.6146 12.1716 17.2906 14.2364 18.6421 15.8546C19.7752 17.2114 21.3119 18.1689 23.0216 18.6014C23.5705 18.7403 24.0869 18.338 24.1605 17.7766C24.2346 17.2123 23.832 16.7033 23.2865 16.541C22.1045 16.1894 21.0456 15.4995 20.2511 14.5481C19.2364 13.333 18.7287 11.7827 18.8314 10.2119C18.934 8.64116 19.6392 7.16784 20.8037 6.09123C21.7166 5.24723 22.8581 4.69665 24.0778 4.49813C24.638 4.40696 25.101 3.95537 25.101 3.38784Z" fill="white"/>
<path d="M9.0106 16.8631C9.0106 17.3635 9.41706 17.7733 9.9157 17.7307C11.973 17.5552 13.907 16.7854 15.3821 15.5387C17.0719 14.1106 18.0212 12.1736 18.0212 10.1538C18.0212 8.13411 17.0719 6.19711 15.3821 4.76895C13.907 3.52224 11.973 2.75243 9.91571 2.57694C9.41706 2.53441 9.0106 2.94415 9.0106 3.44461C9.0106 3.94507 9.41761 4.34546 9.91495 4.4013C11.4022 4.56829 12.7932 5.14391 13.8658 6.05045C15.1535 7.13874 15.8769 8.61477 15.8769 10.1538C15.8769 11.6929 15.1535 13.1689 13.8658 14.2572C12.7932 15.1638 11.4022 15.7394 9.91494 15.9064C9.41761 15.9622 9.0106 16.3626 9.0106 16.8631Z" fill="white"/>
</svg>
