<svg width="47" height="47" viewBox="0 0 47 47" fill="none" xmlns="http://www.w3.org/2000/svg">
<path d="M3.91669 27.4167V19.5833C3.91669 19.064 4.12301 18.5658 4.49027 18.1986C4.85753 17.8313 5.35564 17.625 5.87502 17.625H11.1566C11.5435 17.6251 11.9217 17.5106 12.2435 17.296L20.4548 11.8205C20.75 11.6236 21.0932 11.5105 21.4477 11.4935C21.8021 11.4764 22.1546 11.556 22.4673 11.7238C22.78 11.8915 23.0413 12.141 23.2232 12.4458C23.4051 12.7505 23.5008 13.0989 23.5 13.4538V33.5463C23.5001 33.9008 23.4039 34.2487 23.2217 34.5529C23.0395 34.857 22.7782 35.106 22.4656 35.2733C22.153 35.4405 21.8008 35.5198 21.4467 35.5026C21.0926 35.4854 20.7497 35.3724 20.4548 35.1756L12.2435 29.702C11.9215 29.4881 11.5433 29.3743 11.1566 29.375H5.87502C5.35564 29.375 4.85753 29.1687 4.49027 28.8014C4.12301 28.4342 3.91669 27.9361 3.91669 27.4167V27.4167Z" stroke="white" stroke-opacity="0.8" stroke-width="3"/>
<path d="M32.3125 14.6875C32.3125 14.6875 35.25 17.625 35.25 22.5208C35.25 27.4167 32.3125 30.3542 32.3125 30.3542" stroke="white" stroke-opacity="0.8" stroke-width="3" stroke-linecap="round" stroke-linejoin="round"/>
<path d="M38.1875 8.8125C38.1875 8.8125 43.0833 13.7083 43.0833 22.5208C43.0833 31.3333 38.1875 36.2292 38.1875 36.2292" stroke="white" stroke-opacity="0.8" stroke-width="3" stroke-linecap="round" stroke-linejoin="round"/>
</svg>
